:SAMPLES-PER-SECOND 30
:FRAME-RANGE 1-2045
:FULLY-SPECIFIED
:DEGREES
64
root  -31.8687 39.6747 -51.2992 -0.0134328 23.8305 2.6875
RightUpLeg  2.58526 -9.30477 -3.93885
RightLeg  13.3721 -8.17076 -0.0113089
RightFoot  -14.5325 0.0382665 4.90972
RightToes  5.82063e-011 0 -3.6325e-017
Spine  8.45026 -0.158149 7.55845
Spine1  2.10779 0.473728 -0.960289
HEad  -2.44729 2.03526 -4.97403
LeftShoulder1  1.71328 -1.06235 -31.4794
LeftArm  17.9661 -7.59094 -26.1126
LeftForeArm  -3.25169 -0.899257 -19.6955
LeftHand  0.227494 1.25163 -6.68718
RightShoulder  10.8841 17.355 45.5775
RightArm  18.0296 12.3857 17.4145
RightForeArm  -20.3993 22.8364 6.21252
RightHand  0.704905 2.86141 9.67892
LeftUpLeg  -18.6487 11.6705 2.40268
LeftLeg  5.99408 13.8097 -2.64005
LeftFoot  -1.12616 0.974359 -10.8027
LeftToes  -3.90176e-010 -2.48536e-010 1.05482e-011
65
root  -31.433 39.5365 -50.2732 -0.480954 23.7626 2.20129
RightUpLeg  5.13974 -8.91328 -3.69853
RightLeg  12.6623 -8.28501 0.020847
RightFoot  -15.8893 0.113876 5.57813
RightToes  5.82063e-011 0 -3.6325e-017
Spine  8.17192 -0.0282106 7.17324
Spine1  2.46472 0.57282 -0.901436
HEad  -2.03009 2.06029 -4.5199
LeftShoulder1  1.6951 -1.03767 -31.2815
LeftArm  19.7329 -7.10283 -25.4792
LeftForeArm  -4.88639 -1.47435 -19.755
LeftHand  0.233186 1.37065 -7.02222
RightShoulder  11.182 17.7449 45.9746
RightArm  16.9512 13.1248 17.8505
RightForeArm  -20.8574 24.3613 6.19831
RightHand  0.699793 2.59324 9.95292
LeftUpLeg  -18.2372 7.38172 3.98754
LeftLeg  -1.72058 18.1473 -4.42102
LeftFoot  -0.900597 0.998301 -10.8441
LeftToes  -3.90176e-010 -2.48536e-010 1.05482e-011
66
root  -30.9352 39.3274 -49.1919 -1.27693 23.9034 1.53177
RightUpLeg  8.01181 -8.71066 -3.42512
RightLeg  12.2224 -8.47428 0.0768459
RightFoot  -17.2166 0.185697 5.89004
RightToes  5.82063e-011 0 -3.6325e-017
Spine  8.02984 -0.0318725 6.81006
Spine1  2.77905 0.528292 -0.746167
HEad  -1.52462 2.01923 -3.94768
LeftShoulder1  1.67773 -1.02893 -30.968
LeftArm  21.0151 -6.9712 -24.9316
LeftForeArm  -5.98641 -1.90589 -19.7822
LeftHand  0.235044 1.37556 -7.07486
RightShoulder  11.5239 18.0904 46.6377
RightArm  15.7671 13.7405 18.2305
RightForeArm  -20.373 25.8022 6.51435
RightHand  0.701788 2.47767 10.1383
LeftUpLeg  -18.6724 6.60631 4.45711
LeftLeg  -5.27103 17.7676 -4.51162
LeftFoot  -1.33776 0.99022 -11.1965
LeftToes  -3.90176e-010 -2.48536e-010 1.05482e-011
67
root  -30.3728 39.067 -48.0862 -1.8727 24.0413 0.991008
RightUpLeg  10.7057 -8.64664 -3.37897
RightLeg  12.0285 -8.32495 0.0976918
RightFoot  -18.9041 0.357336 7.33939
RightToes  5.82063e-011 0 -3.6325e-017
Spine  7.8956 -0.00875776 6.30565
Spine1  2.97253 0.510342 -0.63436
HEad  -1.23719 1.7929 -3.23356
LeftShoulder1  1.65582 -1.00768 -30.6536
LeftArm  20.6992 -7.37234 -24.3174
LeftForeArm  -6.65906 -1.86096 -19.8162
LeftHand  0.239835 1.40101 -7.26037
RightShoulder  11.8341 18.3898 47.2496
RightArm  14.9154 14.0591 18.8137
RightForeArm  -19.2085 27.2876 6.82093
RightHand  0.699046 2.38364 10.2285
LeftUpLeg  -19.8153 6.65373 4.78184
LeftLeg  -5.00333 17.5848 -4.26564
LeftFoot  -1.45537 0.994568 -11.3714
LeftToes  -3.90176e-010 -2.48536e-010 1.05482e-011
68
root  -29.7188 38.7836 -46.9324 -2.36194 24.1494 0.524843
RightUpLeg  13.2735 -8.74407 -3.58935
RightLeg  12.2036 -7.87373 0.0560342
RightFoot  -20.285 0.566483 8.98954
RightToes  5.82063e-011 0 -3.6325e-017
Spine  7.66187 0.0970616 6.0338
Spine1  3.1326 0.616621 -0.781048
HEad  -1.15984 1.23075 -2.42045
LeftShoulder1  1.64567 -1.01975 -30.328
LeftArm  19.1834 -8.44365 -23.7383
LeftForeArm  -6.20835 -1.45713 -19.8166
LeftHand  0.243949 1.38559 -7.39909
RightShoulder  12.0599 18.4691 47.9907
RightArm  14.2667 14.0883 19.2926
RightForeArm  -18.1662 28.8401 7.15965
RightHand  0.720814 2.36244 10.5818
LeftUpLeg  -21.3033 7.03044 4.82926
LeftLeg  -1.43971 17.8504 -3.43497
LeftFoot  -1.41398 0.939752 -10.7006
LeftToes  -3.90176e-010 -2.48536e-010 1.05482e-011
